<svg width="40" height="40" viewBox="0 0 40 40" fill="none" xmlns="http://www.w3.org/2000/svg">
<path d="M0 20C0 8.95431 8.95431 0 20 0C31.0457 0 40 8.95431 40 20C40 31.0457 31.0457 40 20 40C8.95431 40 0 31.0457 0 20Z" fill="#1E2B45" fill-opacity="0.67"/>
<path d="M31 20L28.56 17.21L28.9 13.52L25.29 12.7L23.4 9.5L20 10.96L16.6 9.5L14.71 12.69L11.1 13.5L11.44 17.2L9 20L11.44 22.79L11.1 26.49L14.71 27.31L16.6 30.5L20 29.03L23.4 30.49L25.29 27.3L28.9 26.48L28.56 22.79L31 20ZM17.38 24.01L15 21.61C14.61 21.22 14.61 20.59 15 20.2L15.07 20.13C15.46 19.74 16.1 19.74 16.49 20.13L18.1 21.75L23.25 16.59C23.64 16.2 24.28 16.2 24.67 16.59L24.74 16.66C25.13 17.05 25.13 17.68 24.74 18.07L18.82 24.01C18.41 24.4 17.78 24.4 17.38 24.01Z" fill="#F9FAFC"/>
</svg>
