<svg width="40" height="40" viewBox="0 0 40 40" fill="none" xmlns="http://www.w3.org/2000/svg">
<path d="M0 20C0 8.95431 8.95431 0 20 0C31.0457 0 40 8.95431 40 20C40 31.0457 31.0457 40 20 40C8.95431 40 0 31.0457 0 20Z" fill="#1E2B45" fill-opacity="0.67"/>
<path d="M18.9998 13.2085V24.3785L14.1198 19.4985C13.7298 19.1085 13.0898 19.1085 12.6998 19.4985C12.3098 19.8885 12.3098 20.5185 12.6998 20.9085L19.2898 27.4985C19.6798 27.8885 20.3098 27.8885 20.6998 27.4985L27.2998 20.9185C27.6898 20.5285 27.6898 19.8985 27.2998 19.5085C26.9098 19.1185 26.2798 19.1185 25.8898 19.5085L20.9998 24.3785V13.2085C20.9998 12.6585 20.5498 12.2085 19.9998 12.2085C19.4498 12.2085 18.9998 12.6585 18.9998 13.2085Z" fill="#F9FAFC"/>
</svg>
