<svg width="40" height="40" viewBox="0 0 40 40" fill="none" xmlns="http://www.w3.org/2000/svg">
<path d="M0 20C0 8.95431 8.95431 0 20 0C31.0457 0 40 8.95431 40 20C40 31.0457 31.0457 40 20 40C8.95431 40 0 31.0457 0 20Z" fill="#1E2B45" fill-opacity="0.67"/>
<path d="M21.0002 26.7915V15.6215L25.8802 20.5015C26.2702 20.8915 26.9102 20.8915 27.3002 20.5015C27.6902 20.1115 27.6902 19.4815 27.3002 19.0915L20.7102 12.5015C20.3202 12.1115 19.6902 12.1115 19.3002 12.5015L12.7002 19.0815C12.3102 19.4715 12.3102 20.1015 12.7002 20.4915C13.0902 20.8815 13.7202 20.8815 14.1102 20.4915L19.0002 15.6215V26.7915C19.0002 27.3415 19.4502 27.7915 20.0002 27.7915C20.5502 27.7915 21.0002 27.3415 21.0002 26.7915Z" fill="#F9FAFC"/>
</svg>
