<svg width="40" height="40" viewBox="0 0 40 40" fill="none" xmlns="http://www.w3.org/2000/svg">
<path d="M40.0004 20C40.0004 31.046 31.0464 40 20.0004 40C8.95479 40 0.000396729 31.046 0.000396729 20C0.000396729 8.9542 8.95479 0 20.0004 0C31.0464 0 40.0004 8.9542 40.0004 20Z" fill="#1BA27A"/>
<path d="M29.3867 10.085H10.4487V14.657H17.6317V21.377H22.2037V14.657H29.3867V10.085Z" fill="white"/>
<path d="M19.9617 22.0928C14.0197 22.0928 9.20232 21.1524 9.20232 19.9922C9.20232 18.8322 14.0195 17.8916 19.9617 17.8916C25.9037 17.8916 30.7209 18.8322 30.7209 19.9922C30.7209 21.1524 25.9037 22.0928 19.9617 22.0928ZM32.0427 20.3424C32.0427 18.8464 26.6339 17.6338 19.9617 17.6338C13.2897 17.6338 7.88052 18.8464 7.88052 20.3424C7.88052 21.6598 12.0747 22.7574 17.6325 23.0006V32.6474H22.2041V23.0044C27.8047 22.7688 32.0427 21.6666 32.0427 20.3424Z" fill="white"/>
<circle cx="36" cy="36" r="4" fill="#6DE7B6"/>
</svg>
