<svg width="16" height="20" viewBox="0 0 16 20" fill="none" xmlns="http://www.w3.org/2000/svg">
<path d="M8.00154 0.5C7.54154 0.5 7.07154 0.54 6.60154 0.64C3.84154 1.17 1.64154 3.4 1.12154 6.16C0.641536 8.77 1.60154 11.17 3.34154 12.72C3.77154 13.1 4.00154 13.63 4.00154 14.19V16.5C4.00154 17.6 4.90154 18.5 6.00154 18.5H6.28154C6.63154 19.1 7.26154 19.5 8.00154 19.5C8.74154 19.5 9.38154 19.1 9.72154 18.5H10.0015C11.1015 18.5 12.0015 17.6 12.0015 16.5V14.19C12.0015 13.64 12.2215 13.1 12.6415 12.73C14.0915 11.45 15.0015 9.58 15.0015 7.5C15.0015 3.63 11.8715 0.5 8.00154 0.5ZM8.50154 11.5H7.50154V8.91L5.67154 7.09L6.38154 6.38L8.00154 8L9.62154 6.38L10.3315 7.09L8.50154 8.92V11.5ZM9.50154 16.5C9.49154 16.5 9.48154 16.49 9.47154 16.49V16.5H6.53154V16.49C6.52154 16.49 6.51154 16.5 6.50154 16.5C6.22154 16.5 6.00154 16.28 6.00154 16C6.00154 15.72 6.22154 15.5 6.50154 15.5C6.51154 15.5 6.52154 15.51 6.53154 15.51V15.5H9.47154V15.51C9.48154 15.51 9.49154 15.5 9.50154 15.5C9.78154 15.5 10.0015 15.72 10.0015 16C10.0015 16.28 9.78154 16.5 9.50154 16.5ZM9.50154 14.5H6.50154C6.22154 14.5 6.00154 14.28 6.00154 14C6.00154 13.72 6.22154 13.5 6.50154 13.5H9.50154C9.78154 13.5 10.0015 13.72 10.0015 14C10.0015 14.28 9.78154 14.5 9.50154 14.5Z" fill="#F9FAFC"/>
</svg>
