<svg width="21" height="20" viewBox="0 0 21 20" fill="none" xmlns="http://www.w3.org/2000/svg">
<path d="M12.5995 6.2952H15.4695C16.9295 6.2952 18.2695 7.2752 18.5495 8.7152C18.8595 10.3552 17.8095 11.8252 16.3295 12.1952L17.8595 13.7252C19.6295 12.8152 20.8095 10.9052 20.5595 8.7152C20.2795 6.1552 17.9695 4.2952 15.3895 4.2952H12.5995C12.0495 4.2952 11.5995 4.74519 11.5995 5.2952C11.5995 5.8452 12.0495 6.2952 12.5995 6.2952ZM2.10948 0.805195C1.71948 0.415195 1.08948 0.415195 0.699482 0.805195C0.309482 1.1952 0.309482 1.8252 0.699482 2.2152L3.33948 4.8552C1.56948 5.76519 0.389482 7.6752 0.639482 9.8652C0.919482 12.4352 3.22948 14.2952 5.80948 14.2952H8.59948C9.14948 14.2952 9.59948 13.8452 9.59948 13.2952C9.59948 12.7452 9.14948 12.2952 8.59948 12.2952H5.72948C4.26948 12.2952 2.92948 11.3152 2.64948 9.8752C2.33948 8.2352 3.39948 6.7652 4.86948 6.3952L6.98948 8.5152C6.75948 8.7052 6.59948 8.9752 6.59948 9.2952C6.59948 9.8452 7.04948 10.2952 7.59948 10.2952H8.76948L17.6695 19.1952C18.0595 19.5852 18.6895 19.5852 19.0795 19.1952C19.4695 18.8052 19.4695 18.1752 19.0795 17.7852L2.10948 0.805195ZM12.5995 8.2952L14.3095 10.0052C14.4895 9.8252 14.5995 9.5752 14.5995 9.2952C14.5995 8.7452 14.1495 8.2952 13.5995 8.2952H12.5995Z" fill="#F56565"/>
</svg>
