<svg width="16" height="16" viewBox="0 0 16 16" fill="none" xmlns="http://www.w3.org/2000/svg">
<path d="M10.3933 2.39333C10.14 2.14 9.8 2 9.44667 2H3.33333C2.6 2 2.00667 2.6 2.00667 3.33333L2 12.6667C2 13.4 2.59333 14 3.32667 14H12.6667C13.4 14 14 13.4 14 12.6667V6.55333C14 6.2 13.86 5.86 13.6067 5.61333L10.3933 2.39333ZM5.33333 11.3333C4.96667 11.3333 4.66667 11.0333 4.66667 10.6667C4.66667 10.3 4.96667 10 5.33333 10C5.7 10 6 10.3 6 10.6667C6 11.0333 5.7 11.3333 5.33333 11.3333ZM5.33333 8.66667C4.96667 8.66667 4.66667 8.36667 4.66667 8C4.66667 7.63333 4.96667 7.33333 5.33333 7.33333C5.7 7.33333 6 7.63333 6 8C6 8.36667 5.7 8.66667 5.33333 8.66667ZM5.33333 6C4.96667 6 4.66667 5.7 4.66667 5.33333C4.66667 4.96667 4.96667 4.66667 5.33333 4.66667C5.7 4.66667 6 4.96667 6 5.33333C6 5.7 5.7 6 5.33333 6ZM9.33333 6V3L13 6.66667H10C9.63333 6.66667 9.33333 6.36667 9.33333 6Z" fill="#10C7A2"/>
</svg>
