<svg width="14" height="16" viewBox="0 0 14 16" fill="none" xmlns="http://www.w3.org/2000/svg">
<path d="M13.2667 3.52402L13.275 3.51569L10.6167 0.857357C10.375 0.61569 9.975 0.61569 9.73333 0.857357C9.49167 1.09902 9.49167 1.49902 9.73333 1.74069L11.05 3.05736C10.175 3.39069 9.58333 4.28236 9.73333 5.31569C9.86667 6.23236 10.65 6.97402 11.5667 7.07402C11.9583 7.11569 12.3 7.04902 12.625 6.90736V12.9157C12.625 13.374 12.25 13.749 11.7917 13.749C11.3333 13.749 10.9583 13.374 10.9583 12.9157V9.16569C10.9583 8.24902 10.2083 7.49902 9.29167 7.49902H8.45833V1.66569C8.45833 0.749023 7.70833 -0.000976562 6.79167 -0.000976562H1.79167C0.875 -0.000976562 0.125 0.749023 0.125 1.66569V14.1657C0.125 14.624 0.5 14.999 0.958333 14.999H7.625C8.08333 14.999 8.45833 14.624 8.45833 14.1657V8.74902H9.70833V12.799C9.70833 13.8907 10.4917 14.8824 11.575 14.9907C12.825 15.1157 13.875 14.1407 13.875 12.9157V4.99902C13.875 4.42402 13.6417 3.89902 13.2667 3.52402ZM6.79167 5.83236H1.79167V2.49902C1.79167 2.04069 2.16667 1.66569 2.625 1.66569H5.95833C6.41667 1.66569 6.79167 2.04069 6.79167 2.49902V5.83236ZM11.7917 5.83236C11.3333 5.83236 10.9583 5.45736 10.9583 4.99902C10.9583 4.54069 11.3333 4.16569 11.7917 4.16569C12.25 4.16569 12.625 4.54069 12.625 4.99902C12.625 5.45736 12.25 5.83236 11.7917 5.83236Z" fill="#F9FAFC"/>
</svg>
