<svg width="8" height="12" viewBox="0 0 8 12" fill="none" xmlns="http://www.w3.org/2000/svg">
<path d="M3.33329 9.99984C3.33329 10.7332 2.73329 11.3332 1.99996 11.3332C1.26663 11.3332 0.666626 10.7332 0.666626 9.99984C0.666626 9.2665 1.26663 8.6665 1.99996 8.6665C2.73329 8.6665 3.33329 9.2665 3.33329 9.99984ZM1.99996 4.6665C1.26663 4.6665 0.666626 5.2665 0.666626 5.99984C0.666626 6.73317 1.26663 7.33317 1.99996 7.33317C2.73329 7.33317 3.33329 6.73317 3.33329 5.99984C3.33329 5.2665 2.73329 4.6665 1.99996 4.6665ZM1.99996 0.666504C1.26663 0.666504 0.666626 1.2665 0.666626 1.99984C0.666626 2.73317 1.26663 3.33317 1.99996 3.33317C2.73329 3.33317 3.33329 2.73317 3.33329 1.99984C3.33329 1.2665 2.73329 0.666504 1.99996 0.666504ZM5.99996 3.33317C6.73329 3.33317 7.33329 2.73317 7.33329 1.99984C7.33329 1.2665 6.73329 0.666504 5.99996 0.666504C5.26663 0.666504 4.66663 1.2665 4.66663 1.99984C4.66663 2.73317 5.26663 3.33317 5.99996 3.33317ZM5.99996 4.6665C5.26663 4.6665 4.66663 5.2665 4.66663 5.99984C4.66663 6.73317 5.26663 7.33317 5.99996 7.33317C6.73329 7.33317 7.33329 6.73317 7.33329 5.99984C7.33329 5.2665 6.73329 4.6665 5.99996 4.6665ZM5.99996 8.6665C5.26663 8.6665 4.66663 9.2665 4.66663 9.99984C4.66663 10.7332 5.26663 11.3332 5.99996 11.3332C6.73329 11.3332 7.33329 10.7332 7.33329 9.99984C7.33329 9.2665 6.73329 8.6665 5.99996 8.6665Z" fill="#64748B"/>
</svg>
