<svg width="12" height="13" viewBox="0 0 12 13" fill="none" xmlns="http://www.w3.org/2000/svg">
<path d="M8.65113 8.14772H8.12447L7.9378 7.96772C8.7378 7.03438 9.15113 5.76105 8.92447 4.40772C8.61113 2.55438 7.06447 1.07438 5.1978 0.847715C2.3778 0.501049 0.00446653 2.87438 0.351133 5.69438C0.5778 7.56105 2.0578 9.10772 3.91113 9.42105C5.26447 9.64772 6.5378 9.23438 7.47113 8.43438L7.65113 8.62105V9.14772L10.4845 11.981C10.7578 12.2544 11.2045 12.2544 11.4778 11.981C11.7511 11.7077 11.7511 11.261 11.4778 10.9877L8.65113 8.14772ZM4.65113 8.14772C2.99113 8.14772 1.65113 6.80772 1.65113 5.14772C1.65113 3.48772 2.99113 2.14772 4.65113 2.14772C6.31113 2.14772 7.65113 3.48772 7.65113 5.14772C7.65113 6.80772 6.31113 8.14772 4.65113 8.14772Z" fill="white" fill-opacity="0.73"/>
</svg>
