<svg width="20" height="19" viewBox="0 0 20 19" fill="none" xmlns="http://www.w3.org/2000/svg">
<path d="M5.04574 3.36667L4.72074 3.04167C4.39574 2.71667 3.87074 2.725 3.55407 3.04167L3.54574 3.05C3.22074 3.375 3.22074 3.9 3.54574 4.21667L3.87074 4.54167C4.19574 4.86667 4.7124 4.86667 5.0374 4.54167L5.04574 4.53333C5.37074 4.21667 5.37074 3.68333 5.04574 3.36667ZM2.5124 8.66667H1.6624C1.20407 8.66667 0.837402 9.03333 0.837402 9.49167V9.5C0.837402 9.95833 1.20407 10.325 1.6624 10.325H2.50407C2.97074 10.3333 3.3374 9.96667 3.3374 9.50833V9.5C3.3374 9.03333 2.97074 8.66667 2.5124 8.66667ZM10.0124 0.375H10.0041C9.5374 0.375 9.17074 0.741667 9.17074 1.2V2C9.17074 2.45833 9.5374 2.825 9.99574 2.825H10.0041C10.4707 2.83333 10.8374 2.46667 10.8374 2.00833V1.2C10.8374 0.741667 10.4707 0.375 10.0124 0.375ZM16.4624 3.05C16.1374 2.725 15.6124 2.725 15.2874 3.04167L14.9624 3.36667C14.6374 3.69167 14.6374 4.21667 14.9624 4.53333L14.9707 4.54167C15.2957 4.86667 15.8207 4.86667 16.1374 4.54167L16.4624 4.21667C16.7874 3.89167 16.7874 3.375 16.4624 3.05ZM14.9541 15.6333L15.2791 15.9583C15.6041 16.2833 16.1291 16.2833 16.4541 15.9583C16.7791 15.6333 16.7791 15.1083 16.4541 14.7833L16.1291 14.4583C15.8041 14.1333 15.2791 14.1417 14.9624 14.4583C14.6291 14.7917 14.6291 15.3083 14.9541 15.6333ZM16.6707 9.49167V9.5C16.6707 9.95833 17.0374 10.325 17.4957 10.325H18.3374C18.7957 10.325 19.1624 9.95833 19.1624 9.5V9.49167C19.1624 9.03333 18.7957 8.66667 18.3374 8.66667H17.4957C17.0374 8.66667 16.6707 9.03333 16.6707 9.49167ZM10.0041 4.5C7.24574 4.5 5.00407 6.74167 5.00407 9.5C5.00407 12.2583 7.24574 14.5 10.0041 14.5C12.7624 14.5 15.0041 12.2583 15.0041 9.5C15.0041 6.74167 12.7624 4.5 10.0041 4.5ZM9.99574 18.625H10.0041C10.4624 18.625 10.8291 18.2583 10.8291 17.8V17C10.8291 16.5417 10.4624 16.175 10.0041 16.175H9.99574C9.5374 16.175 9.17074 16.5417 9.17074 17V17.8C9.17074 18.2583 9.5374 18.625 9.99574 18.625ZM3.54574 15.95C3.87074 16.275 4.39574 16.275 4.72074 15.95L5.04574 15.625C5.37074 15.3 5.3624 14.775 5.04574 14.4583L5.0374 14.45C4.7124 14.125 4.1874 14.125 3.8624 14.45L3.5374 14.775C3.22074 15.1083 3.22074 15.625 3.54574 15.95Z" fill="#27C69F"/>
</svg>
